<svg xmlns="http://www.w3.org/2000/svg" width="22" height="14" viewBox="0 0 22 14"><defs><style>.a{fill:#afafaf;}</style></defs><g transform="translate(-614.212 -320.719)"><path class="a" d="M1131.758,480.969l.011.467a.659.659,0,0,1-.07.311l-.009.018a.66.66,0,0,0,.017.623h0a.659.659,0,0,1,.087.328V483.9a.8.8,0,0,1-.2.527h0a.8.8,0,0,1-.606.276h-.826a.12.12,0,0,0-.12.12h0a.12.12,0,0,1-.12.12h-.068a.12.12,0,0,1-.12-.116,1.992,1.992,0,0,0-2.189-2.073.317.317,0,0,1-.324-.317v-.064a.317.317,0,0,0-.317-.317h0a.317.317,0,0,1-.317-.317v-3.266a.7.7,0,0,1,.085-.335h0a.7.7,0,0,1,.618-.368h3.112a.706.706,0,0,1,.637.406,8.336,8.336,0,0,1,.625,2A7.309,7.309,0,0,1,1131.758,480.969Z" transform="translate(-495.583 -151.766)"/><path class="a" d="M659.143,535.92V535.9a.141.141,0,0,0-.184-.135l-.006,0a.307.307,0,0,1-.4-.293v-.578a.141.141,0,0,0-.141-.141h-.921a.141.141,0,0,0-.141.141v1.511a.141.141,0,0,1-.141.141h-1.138a.141.141,0,0,1-.133-.093l-1.463-3.606a.141.141,0,0,0-.133-.093h-1.378a.141.141,0,0,0-.141.141v3.509a.141.141,0,0,1-.141.141h-.343a.141.141,0,0,1-.141-.128l-.063-.642a.141.141,0,0,0-.141-.128h-8.413a.141.141,0,0,0-.141.141v.571a.141.141,0,0,1-.141.141h-.352a.141.141,0,0,0-.141.141v1.1a.141.141,0,0,0,.141.141h.17a.141.141,0,0,1,.141.148c0,.026,0,.053,0,.08a.141.141,0,0,0,.141.143h.031a.141.141,0,0,0,.16-.122,6.234,6.234,0,0,1,.246-1.039l0-.011a1.375,1.375,0,0,1,1.3-.907H646a1.329,1.329,0,0,1,1.261.909l0,.01a6.069,6.069,0,0,1,.2,1.045.141.141,0,0,0,.152.125l.113-.009h.025l.091.008a.141.141,0,0,0,.153-.123,6.211,6.211,0,0,1,.247-1.046l0-.011a1.374,1.374,0,0,1,1.3-.907h.869a1.33,1.33,0,0,1,1.261.909l0,.01a6.07,6.07,0,0,1,.2,1.046.141.141,0,0,0,.15.125l.025,0a.14.14,0,0,0,.127-.158.4.4,0,0,1,0-.049v-.012a.141.141,0,0,1,.141-.141h4.916a.141.141,0,0,1,.141.148c0,.026,0,.053,0,.08a.142.142,0,0,0,.141.143h.052a.141.141,0,0,0,.141-.143,1.948,1.948,0,0,1,1.33-2.079A.141.141,0,0,0,659.143,535.92Z" transform="translate(-27.654 -204.941)"/><path class="a" d="M625.244,326.913h1.4a.758.758,0,0,1,.714.5l.433,1.2a.759.759,0,0,0,1.041.427l.571-.273a.759.759,0,0,0,.429-.621l.014-.165.3-3.69.013-.158a.759.759,0,0,0-.328-.689l-3.8-2.6a.759.759,0,0,0-.548-.123l-10.358,1.654a.758.758,0,0,0-.636.686v.006l-.274,3.689h0a.758.758,0,0,0,.521.784l8.756,2.855a.759.759,0,0,0,.994-.721v-2.01A.759.759,0,0,1,625.244,326.913Z" transform="translate(0 0)"/><path class="a" d="M680.068,649.247a1.632,1.632,0,0,0-1.088.45,1.539,1.539,0,1,0,1.088-.45Z" transform="translate(-62.204 -317.604)"/><path class="a" d="M814.488,649.247a1.6,1.6,0,0,0-1.088.45,1.539,1.539,0,1,0,1.088-.45Z" transform="translate(-192.221 -317.604)"/><path class="a" d="M1113.276,649.247a1.537,1.537,0,1,0,1.088.45A1.561,1.561,0,0,0,1113.276,649.247Z" transform="translate(-481.22 -317.604)"/></g></svg>