<svg xmlns="http://www.w3.org/2000/svg" width="12" height="12" viewBox="0 0 12 12"><defs><style>.a{fill:#222;}</style></defs><g transform="translate(0 0)"><path class="a" d="M550.432,142.926h11.137a.432.432,0,0,0,0-.863H550.432a.432.432,0,0,0,0,.863ZM561,133.935l-.416.424-2.722-2.732.417-.423a.953.953,0,0,1,1.353.008L561,132.576a.965.965,0,0,1,.007,1.359Zm-.753.922-.649.611-2.84-2.851.651-.611,2.839,2.849h0Zm-7.864,3.389-.511,1.743.379.38,1.739-.512-1.607-1.613Zm-1.26,3.278a.4.4,0,0,1-.385-.517l.949-3.243a.393.393,0,0,1,.139-.2l4.52-4.5.994,1,0,0,.742.747,0,0,1.1,1.1-4.533,4.509a.377.377,0,0,1-.185.129l-3.233.952a.409.409,0,0,1-.113.015h0Zm0,0" transform="translate(-550 -130.926)"/></g></svg>