<svg xmlns="http://www.w3.org/2000/svg" width="20" height="20" viewBox="0 0 20 20"><defs><style>.a{fill:#333;}.b{fill:#fff;}</style></defs><circle class="a" cx="10" cy="10" r="10"/><path class="b" d="M657.293,168.1c.023-.014.274-.171.348-.216a3.353,3.353,0,0,1,.36-.194c.789-.359,1.484-.105,2.4.97a1.7,1.7,0,0,1,.518,1.781,2.212,2.212,0,0,1-1.04,1c-.036.021-.36.209-.443.261-1.306.806-4.3-1.039-6.455-4.193s-2.718-6.532-1.394-7.35l.175-.111.19-.123a2.183,2.183,0,0,1,1.606-.52,1.929,1.929,0,0,1,1.3,1.146c.77,1.446.6,2.132-.39,2.756-.071.046-.324.2-.348.213-.243.15.168,1.156,1.124,2.555.967,1.415,1.776,2.188,2.041,2.026Zm0,0" transform="translate(-645.559 -155.376)"/></svg>