<svg xmlns="http://www.w3.org/2000/svg" width="67" height="67" viewBox="0 0 67 67"><defs><style>.a{fill:#666;}</style></defs><g transform="translate(0 0)"><path class="a" d="M599.38,147.528a33.5,33.5,0,1,0,33.5,33.5A33.5,33.5,0,0,0,599.38,147.528Zm.035,12.946c4.641,0,8.445,4.048,8.445,9.038s-3.8,9.038-8.445,9.038c-4.676,0-8.445-4.048-8.445-9.038S594.774,160.474,599.415,160.474Zm-16.157,41.107a17.631,17.631,0,0,1-2.373-3.873c-.977-2.059.523-4.048,1.116-5.025.873-1.5,3.769-5.967,5.653-9.038,1.221-1.885,1.85-1.954,1.85-1.954a22.057,22.057,0,0,1,9.91-1.885,26.194,26.194,0,0,1,6.77.873L598.4,191.741c-7.293.523-10.573,6.351-10.469,9.84Zm7.224.035c0-4.083,3.978-7.258,8.9-7.258s8.9,3.175,8.9,7.258Zm27.428-4.048c-2.233,4.048-2.687,4.013-2.687,4.013h-4.258c0-3.908-3.525-9.457-10.643-9.875l7.468-10.574c.314.1.593.174.8.244,1.954.593,3,2.861,3.35,3.455.244.454,3.455,5.444,4.885,7.921C617.84,194.567,618.747,195.51,617.91,197.569Z" transform="translate(-565.88 -147.528)"/></g></svg>